# xmcd
#
# Track frame offsets:
#	150
#	13678
#	27260
#	44403
#	57753
#	71962
#	87601
#	97796
#	113421
#	126927
#	147549
#	159450
#	175861
#	185729
#	195444
#	210657
#	232206
#	243456
#	255908
#	265442
#	277220
#	292736
#	307454
#	321858
#	337870
#
# Disc length: 4716 seconds
#
# Revision: 0
# Processed by: cddbd v1.5.2PL0 Copyright (c) Steve Scherf et al.
# Submitted via: EZCDAudioConverter 2.1.7.1
#
DISCID=7b126a19
DTITLE=V/A - Czech Up! V1: Chain Of Fools
DYEAR=1900
DGENRE=
TTITLE0=Komety - Chain Of Fools
TTITLE1=Pavel Novák and Vox - Kočičí Král Felix
TTITLE2=Flamingo - Zlom Vaz
TTITLE3=Discobolos - Kyvadlo
TTITLE4=Golden Kids - Nestůj A Pojď (U Nás Máme Mejdan)
TTITLE5=Helena Blehárová - Závrať
TTITLE6=Karel Černoch - Už Tu Nesmím Zůstat (Uptight, Everything's Alright)
TTITLE7=Bezinky - Jedeme Dál
TTITLE8=Petr Spálený - Lesní Víla
TTITLE9=Flamengo - Poprava Blond Holky
TTITLE10=Blue Effect - Blue Taxi
TTITLE11=Václav Týfa - Domácí Vojna Mezi Tělem A Duší
TTITLE12=Atlantis - Nikdy Nebudu Tvá
TTITLE13=Eva Pilarová - Léto, Léto
TTITLE14=Viktor Sodoma - Vysoká Hra
TTITLE15=Jazz Cellula - Polobotka
TTITLE16=Josef Laufer and Their Majesties - Útěk Z Hladomorny
TTITLE17=Framus Five - Around And Around
TTITLE18=Jitka Zelenková and The Gondolán Brothers - Já Nechci Mít
TTITLE19=George and Beatovens - Lež Bláznivého Básníka
TTITLE20=The Bluesmen - Story O Velké Lásce
TTITLE21=Karel Gott - I've Never Been So Young
TTITLE22=Ferdinand Havlík Orchestra - Beat
TTITLE23=Mahagon - Ve Světle Petrolejky
TTITLE24=Waldemar Matuška - Barbarella (An Angel Is Love)
EXTD=
EXTT0=
EXTT1=
EXTT2=
EXTT3=
EXTT4=
EXTT5=
EXTT6=
EXTT7=
EXTT8=
EXTT9=
EXTT10=
EXTT11=
EXTT12=
EXTT13=
EXTT14=
EXTT15=
EXTT16=
EXTT17=
EXTT18=
EXTT19=
EXTT20=
EXTT21=
EXTT22=
EXTT23=
EXTT24=
PLAYORDER=
